<?xml version="1.0" encoding="utf-8"?>
<svg width="256px" height="256px" viewBox="0 0 24 24" fill="none" xmlns="http://www.w3.org/2000/svg">
  <defs/>
  <g id="SVGRepo_bgCarrier" stroke-width="0"/>
  <g id="SVGRepo_tracerCarrier" stroke-linecap="round" stroke-linejoin="round"/>
  <g id="SVGRepo_iconCarrier">
    <path style="stroke: rgb(0, 0, 0); fill: rgb(191, 191, 191);" d="M 4.749 14.752 C 4.749 15.489 3.999 16.022 3.769 16.711 C 3.712 16.882 3.521 17.356 3.684 17.52 C 3.886 17.721 4.346 17.791 4.621 17.86 C 5.632 18.113 6.572 18.329 7.644 18.329 C 8.978 18.329 10.312 18.329 11.646 18.329 C 12.243 18.329 12.932 18.426 13.519 18.329 C 14.294 18.199 15.116 18.073 15.903 18.073 C 17.211 18.073 18.857 18.342 19.99 17.775 C 20.227 17.657 20.305 17.375 20.459 17.222 C 20.475 17.205 20.467 16.94 20.459 16.924 C 20.403 16.813 20.159 16.751 20.075 16.626 C 19.927 16.403 19.782 16.082 19.65 15.817 C 19.085 14.687 18.574 13.346 18.245 12.028 C 18.08 11.369 18.337 10.515 18.117 9.856 C 17.958 9.379 17.973 8.827 17.819 8.366 C 17.449 7.257 16.652 6.177 15.861 5.386 C 15.357 4.883 14.481 4.61 13.774 4.492 C 12.888 4.344 11.542 3.888 10.624 4.194 C 9.612 4.531 8.594 5.381 7.984 6.195 C 7.692 6.585 7.21 7.034 7.09 7.515 C 6.821 8.59 6.586 9.66 6.324 10.708 C 6.249 11.006 6.286 11.507 6.154 11.772 C 6.068 11.943 6.09 12.251 5.983 12.411 C 5.799 12.688 5.43 13.206 5.43 13.56"/>
    <path fill-rule="evenodd" clip-rule="evenodd" d="M14.3752 3.98156C13.6432 3.67099 12.8398 3.5 12 3.5C8.89876 3.5 6.29342 5.83189 5.95094 8.9142L5.69914 11.1804L5.69288 11.2363C5.572 12.2897 5.2291 13.3056 4.68681 14.2168L4.65795 14.265L4.07991 15.2284L4.06599 15.2516C3.81556 15.669 3.60811 16.0147 3.47327 16.301C3.33718 16.5899 3.23229 16.9025 3.28456 17.2338C3.34107 17.5919 3.5254 17.9175 3.80345 18.1502C4.06063 18.3655 4.38261 18.4364 4.70041 18.4683C5.01528 18.5 5.41847 18.5 5.90519 18.5H5.93227H18.0678H18.0949C18.5816 18.5 18.9848 18.5 19.2997 18.4683C19.6175 18.4364 19.9395 18.3655 20.1966 18.1502C20.4747 17.9175 20.659 17.5919 20.7155 17.2338C20.7678 16.9025 20.6629 16.5899 20.5268 16.301C20.392 16.0147 20.1846 15.669 19.9342 15.2517L19.9341 15.2516L19.9202 15.2284L19.3421 14.265L19.3133 14.2168C18.771 13.3056 18.4281 12.2897 18.3072 11.2363L18.3009 11.1804L18.2585 10.798C17.9455 10.9016 17.6155 10.9677 17.2737 10.9908L17.3071 11.2909L17.3137 11.3503C17.4507 12.5442 17.8393 13.6955 18.4539 14.7282L18.4846 14.7795L19.0627 15.7429C19.3306 16.1894 19.5113 16.4918 19.6221 16.7271C19.7341 16.9649 19.7321 17.0504 19.7277 17.0779C19.7089 17.1973 19.6475 17.3058 19.5548 17.3834C19.5334 17.4013 19.4612 17.447 19.1996 17.4734C18.9408 17.4994 18.5885 17.5 18.0678 17.5H5.93227C5.41159 17.5 5.05923 17.4994 4.80051 17.4734C4.53889 17.447 4.4667 17.4013 4.4453 17.3834C4.35262 17.3058 4.29118 17.1973 4.27234 17.0779C4.26799 17.0504 4.26593 16.9649 4.37796 16.7271C4.48875 16.4918 4.66952 16.1894 4.9374 15.7429L5.51544 14.7795L5.54615 14.7282C6.16074 13.6955 6.54936 12.5442 6.68636 11.3503L6.69302 11.2909L6.94482 9.02463C7.23103 6.44875 9.40831 4.5 12 4.5C12.5837 4.5 13.1464 4.59884 13.6711 4.78142C13.8695 4.48435 14.1066 4.21532 14.3752 3.98156ZM16.1893 5.17115C15.8745 5.31089 15.6025 5.52951 15.3984 5.80192C16.2932 6.6054 16.9044 7.72482 17.0524 8.99933C17.407 8.99021 17.7386 8.8888 18.0242 8.71822C17.8234 7.32034 17.155 6.08721 16.1893 5.17115Z" style="fill: rgb(191, 191, 191); stroke: rgb(191, 191, 191);"/>
    <path d="M 9.059 19.619 C 9.23 20.363 9.607 21.021 10.131 21.49 C 10.655 21.959 11.297 22.213 11.957 22.213 C 12.617 22.213 13.259 21.959 13.783 21.49 C 14.307 21.021 14.684 20.363 14.855 19.619" stroke-linecap="round" style="fill: rgb(191, 191, 191); stroke: rgb(191, 191, 191);"/>
    <circle cx="16.863" cy="7.109" r="3.233" style="fill: rgb(55, 181, 253); stroke: rgb(55, 181, 253);"/>
    <rect x="8.102" y="19.497" width="7.606" height="0.012" style="fill: rgb(216, 216, 216); stroke: rgb(255, 255, 255);"/>
  </g>
</svg>